<?xml version="1.0" encoding="UTF-8"?><svg id="Layer_2" xmlns="http://www.w3.org/2000/svg" viewBox="0 0 643.15 810.28"><defs><style>.cls-1{fill:#fff;}.cls-2{fill:none;stroke:#fff;stroke-miterlimit:10;stroke-width:2.42px;}</style></defs><g id="Layer_1-2"><text/><path class="cls-1" d="M581.05,158.24v-.06l-2.16-7.56-2.03-10.67v-.28l-.06-.28-.34-8.3,.11-1.18v-.28l.06-.28,.06-.62v-.28l.06-.28,.06-.57,.79-3.67,1.14-2.94c.19-.38,.19-.79,0-1.24-.16-.41-.45-.71-.85-.9l-.69-.11-5.42-.06-6.21-13.15-8.29-13.37c-.23-.3-1.02-1.33-2.37-3.1-.3-.37-1.19-1.39-2.66-3.05-.75-.86-1.67-1.81-2.76-2.82-1.09-1.02-2.11-1.9-3.05-2.65-1.02-.83-2.1-1.62-3.22-2.37l-1.75-1.07-.23-.17-5.3-2.48c-1.16-.49-2.46-.88-3.89-1.19-.49-.11-.96-.04-1.41,.23-.42,.26-.68,.64-.79,1.13-.16,.68,.04,1.28,.56,1.81h.06l8.4,7.84,.29,.23,.12,.17,.17,.11,9.19,11.29,2.93,4.46,.17,.34,1.58,2.65,5.19,10.67,1.87,5.08,.12,.17,.62,2.03,.29,.68,2.99,12.02,.11,.34,.45,2.65,.06,.23v.17l1.7,15.8,.17,9.93-3.78-15.46-7.46-18.96-8.35-14.9c-1.95-2.94-3.25-4.82-3.84-5.64l-5.2-6.77-9.64-10.84-4.91-4.74-10.73-9.14-.16-.11-.17-.17-2.72-2.09c-.49-.38-1.03-.53-1.64-.45-.63,.11-1.13,.41-1.52,.9-.3,.38-.45,.83-.45,1.35,0,.49,.14,.94,.45,1.35l.06,.06,10.5,14.33,14.44,23.31,12.43,26.19,7.17,21.39,.04,.4,1.08,4.01-6.65-4.46-9.71-4.23-3.84-1.19-.29-.06-.33-.11-7.79-1.69-8.02-.9-9.15-7.73-6.03-4.06-9.6-4.97v-.17l-5.19-10.05-5.42-7.67c-.53-.64-.92-1.13-1.19-1.47l-5.07-5.53c-.23-.26-.47-.26-.73,0-.19,.19-.23,.39-.11,.62l2.08,3.95,5.03,12.3,.06,.34,1.02,3.44-6.05-2.15-8.4-1.64-5.7-.28-.11,.57h-.1s.07,.02,.1,.06l-.1,.45,1.12,.06c-.07,.04-.06,.06,.06,.06l.23,.17,21.95,12.08,.22,.17v.11l-.04,.17v.11l.04,.17-.04,6.32-.17,1.24v.34l-.4,1.98-.06,.17-.06,.11-.04,.23-.75,1.92-.1,.23-.11,.17-.06,.11-8.02,.79c-.42,0-.73,.02-.96,.06l-21.84-.17c-2.11-.07-3.69-.15-4.74-.23l-16.25-.68,16.48-21.45c.14-.23,.2-.47,.17-.73-.04-.26-.17-.49-.4-.68-.26-.19-.57-.23-.96-.11h-.06l-3.16,1.47-8.12,5.25-6.67,6.09c-.45,.41-1.09,1.07-1.91,1.97l-8.92,11.57v-2.77l.06-.34v-.73l.73-5.93,.11-.34,.12-.73,1.64-6.88v-.06c.14-.45,.09-.87-.17-1.24-.23-.41-.56-.68-1.02-.79-.79-.23-1.41,.02-1.85,.73-1.09,1.8-2,3.54-2.72,5.19-.72,1.51-1.42,3.31-2.14,5.42l-2.08,6.88-2.94,16.25-.85,9.2-.06,.34-.45,30.93,.45,4.29c.3,1.84,.6,3.44,.91,4.8l-22.96-16.42-.34-.34-.17-.11-.56-.62-.34-.28-.22-.34-.57-.68-1.68-2.93-.34-.85-.11-.17-.06-.23-.17-.4-1.01-3.44-.34-1.81c-.23-1.17-.39-2.39-.5-3.67l-.23-41.48,5.59-1.47c.93-.19,2.38-.4,4.34-.62l6.55-.51,10.72,.62,.23,.06c.42,.08,.62-.07,.62-.45,.04-.26-.07-.47-.33-.62l-1.42-.45-.33-.17-8.98-2.6-9.53-1.69h-.4l-1.12-.17-5.53-.11,2.08-10.38,7.56-45.82c.09-.38,0-.71-.22-1.02-.27-.3-.59-.49-.96-.56-.76-.11-1.26,.21-1.52,.96l-5.03,14.39-4.86,11.29-.16,.23-3.06,5.87-.06-.06-.22-.06-.23-.17-.45-.23-.06-.06h-.06l-.11-.11-.11-.06-.06-.06h-.06l-.56-.56-.23-.17-.06-.11-.27-.28-.34-.45-.11-.23-.12-.11-.06-.17-.5-.96-.11-.28-.06-.23-.22-.56-.06-.11v-.17l-.11-.23-.34-1.13c0-.11-.03-.13-.11-.06-.1,0-.13,.04-.06,.11,0,.38,.06,.75,.17,1.13l.06,.28v.17l.06,.11,.06,.28v5.02l-.06,.23v1.24l-.06,.51v.23l-.06,.23v.51l-.06,.23v.23l-.16,1.47-.11,.45-.23,1.41-.06,.11v.11l-.56,2.03-.34,.85-.06,.28v.11l-.5,3.39-.12,.34-.06,.4-.11,.34-.06,.4-.5,1.75-.06,.11-.17,.51-.11,.17-.16,.45-.11,.11-.06,.17-.06,.11-.29,.4-.06,.11-.45,.51-.34,.23-.12,.06-12.36-3.44,1.47-2.43,.17-.23,.68-1.24c.19-.3,.14-.53-.16-.68-.27-.11-.46-.09-.57,.06l-3.66,3.44-3.1,3.84,1.58-8.75,3.1-27.43-.23-13.88c-.14-1.58-.3-2.73-.45-3.44-.04-.26-.17-.49-.4-.68-.22-.15-.46-.21-.73-.17-.49,.08-.76,.34-.85,.79l-4.34,20.26,.06-.11-3.33,11.34-3.1,17.44-.79,11.8,.06,5.81-1.35,1.98-.06,.06-2.43,1.98c-.86,.75-1.64,1.49-2.31,2.2-.83,.83-1.55,1.62-2.16,2.37l-1.91,2.6c-.68,1.09-1.21,2.03-1.58,2.82-.45,.9-.86,1.92-1.24,3.05-.39,1.02-.66,2.07-.85,3.16l-.12,.4-.29,2.09v.4l-.06,.17v1.07l-.06,.39,.11,2.09c.07,1.17,.22,2.26,.4,3.27l.79,3.16c.19,.71,.55,1.75,1.06,3.1l2.83,5.87,3.55,5.42,1.25,1.3,.16,.23,.23,.17,11.68,10.33,.23,.11,14.05,9.37,15.52,7.9,16.19,6.26-.06-.06,1.02,.51,.17,.11,.17,.06,1.06,.51,.34,.23,.68,.34,1.29,.85,.34,.17,5.19,4.06,1.13,1.07-2.82-2.2-2.83-1.58-1.7-.68-2.82-.73h.17l-.91-.28-7.96-3.16-5.03-2.54h-.04l-.06-.06c-1.25-.56-2.36-1-3.33-1.3l-1.81-.45-1.02-.06-1.12,.17c-.42,.07-.8,.23-1.19,.45-.4,.3-.73,.62-.95,.96-.27,.41-.45,.81-.52,1.19-.11,.34-.17,.7-.17,1.07-.03,.34-.03,.68,0,1.02l.12,.96c0,.34,.06,.64,.17,.9l.17,.85c.11,.37,.32,.66,.62,.84,.26,.11,.55,.17,.85,.17l.06,.39,.96,2.77v.06h.06l3.78,5.13-.06-.17,7.44,15.97,.06,.17v.06l.06,.06v.06l.06,.06,.56,1.02,4.91,6.83,1.08,1.13,.23,.28,2.53,2.37,3.45,2.48,3.72,1.98,4.35,1.47,.33,.06,.4,.11,1.12,.17h.11l-1.87,1.47-1.29,1.41-.85,1.18-.12,.23-.1,.06-.75,1.41-.1,.17-.69,1.58-.89,3.67v.23l-.06,.28-.06,.85v.06s-.04,.08,0,.11l-.17,.73v.4l-.17,2.2,1.35,4.35,.69,1.52,1.18,1.97,.23,.28,.17,.28,.83,1.02s.09,.07,.12,.11l-.27,.51-.11,.34-1.7,4.12-.06,.06v.06l-.29,1.69-.1,.34-.06,.34-.11,.28-.79,2.6-3.39,6.66-3.22,4.51-.17,.28-.89,1.07-.17,.28-.79,1.02-.73,.17-.57,.56-.27,.23-2.1,2.48-.27,.45-.11,.11-1.24,2.26-.11,.34-.17,.34-.79,3.22v.4l-.06,.34v1.86l.29,1.86,.39,1.41,.17,.34,.5,1.3,1.58,2.65,.06,.17,.46,.56,.1,.11,.75,.34,.33,.11,.34,.17,.56,.17h.17l.33,.11,.34,.06-.06,.17v.68l.06,.51v.23l.23,.96,.1,.23,.17,.45,.11,.23,.06,.23,.5,.85,.17,.17,.11,.23,.34,.34c.1,.19,.32,.43,.62,.73l2.2,1.86,.45,.23,.4,.28,.79,.45,3.45,1.58h-.11l3.72,1.47,2.76,.51,.57,.06h.27l.29,.06h1.58l.45,.11,.11,.06h.11l.06,.06,.23,.06,.16,.11,.11,.06,.12,.11,.23,.11,.11,.11,.12,.06,.56,.57,.17,.22,.06,.06s-.06,.02-.06,.06c-.11,0-.22,.06-.29,.17-.11,.07-.17,.17-.17,.28-.56,4.89-1.72,9.56-3.49,13.99-.09,.11-.09,.24,0,.39l.06,.06-.91,.85-3.72,5.53-.11,.28-.17,.28-1.41,3.05v.06l-.52-.06-.16,.06h-.63l-1.18,.11h-.4l-3.1,.45c-2.07,.34-4.15,.73-6.26,1.18l-27.54,7-20.53,3.67h-.4l-.79,.11-14.11,1.02-10.95-.11c-1.39-.04-3.48-.17-6.26-.39-2.07-.15-4.15-.38-6.26-.68l.12,.06-14.28-2.77h-.27l-24.38-3.1h-.29l-.33-.06-4.86-.34-.29-.06-26.46-1.02-.62,.06-9.94,.06-5.75-1.58-12.08-2.31-1.52-.17-.23-.06h-.27l-7.11-.62c-.46,0-.82-.02-1.08-.06h-8.19c-1.35,0-2.7,.06-4.05,.17-2.72,.19-5.42,.47-8.13,.85l-1.52,.17-.5,.11-2.04,.28-11.97,2.65,.11-.06-.62,.11-.17,.06-8.46,2.2-.33,.11-9.6,1.92-15.07,1.92h-.34l-1.35,.11h-.33l-.17,.06h-.17l-6.94,.84c-2.33,.42-4.15,.79-5.47,1.13-1.81,.45-3.61,.96-5.42,1.52-1.55,.45-3.29,1.05-5.24,1.81-1.67,.64-3.38,1.37-5.14,2.2-1.58,.75-3.23,1.6-4.97,2.54-1.49,.83-3.1,1.79-4.78,2.88l-.57,.39-.33,.17-8.3,6.09c-1.65,1.77-3.1,3.41-4.34,4.91-1.44,1.81-2.73,3.57-3.89,5.3-1.28,1.96-2.37,3.86-3.28,5.7-.98,1.88-1.88,3.89-2.72,6.04-.79,2.22-1.42,4.31-1.91,6.26-.49,2.11-.89,4.27-1.19,6.49-.22,1.84-.37,4.04-.45,6.6,0,1.92,.1,4.1,.29,6.55,.26,2.48,.56,4.65,.89,6.49,.42,2.29,.89,4.4,1.42,6.32,.33,1.24,.98,3.33,1.91,6.26,.65,1.92,1.41,3.93,2.31,6.04,.42,1.09,1.28,3.07,2.6,5.93,1.51,3.01,2.49,4.93,2.93,5.76l3.16,5.64c.95,1.66,2.04,3.43,3.28,5.31,.04,.04,.07,.09,.11,.17,.19,.3,.45,.49,.79,.56,.14,.04,.32,.04,.5,0v.06l2.93,8.52,4.74,10.21,4.18,7.34,.17,.23,.06,.17,.06,.06v.06h.06l.27,.51,.17,.17v.06l.23,.45,.12,.11,.95,2.03,.79,2.54c.16,.68,.27,1.39,.34,2.14l.12,2.2-.62,4.8-.11,.28-.46,1.7c-.45,1.58-1.01,3.07-1.7,4.51l-1.62,3.33-4.58,7.33-17.1,20.49-10.6,11.18-.06-.06h-.12v-.06h-.06l-.06-.06h-.17l-.06,.11v.06l.06,.06v.12l.06,.1v.06l-.62,.52,.06-.06-.39,.17-.4,.1-.79,.34c-.34,.16-.6,.26-.79,.34l-.73,.33-.34,.23-.39,.17-2.43,1.64-.62,.56-.17,.11-.79,.73-.12,.17-.45,.45c-.98,1.13-1.68,2.01-2.1,2.66-.56,.79-1.12,1.77-1.68,2.93-.3,.53-.75,1.54-1.31,3.05-.37,1.09-.72,2.16-1.02,3.22l-.73,3.28c-.29,1.49-.59,3.72-.89,6.65l.22,16.71,.34,3.1-15.4,71.39-.11,.33-4.57,17.9-.11,.1-.57,.69-.16,.16-.17,.23-.06,.12-1.64,1.7-.17,.22-.23,.17-.16,.17-.23,.17-.17,.17-.23,.1-.62,.46-.85,.45-.16,.06-.11,.06h-.12l-.23,.11h-.06l-.56,.29-.5,.45-.29,.17-4.07,3.78-.91,1.13-.11,.16-.1,.11-1.25,1.87-.17,.33-.1,.17-.06,.17-.17,.34-.34,.89-.12,.23-.27,.96v.23l-.11,.39v.17l-.06,.23v.39l-.06,.45v.85l.06,.46,.06,.17v.22l.29,1.02v.11l.04,.11,.17,.56,.46,.96,.11,.17,.04,.1,.06,.06,.17,.34,.46,.68,.04,.06,.06,.11,.12,.17,1.47,1.58h.06l7.84,5.75-.12,25.4c0,1.02,.47,1.71,1.42,2.08l1.64,.68,.27,.06,4.86,1.47,4.07,.75,8.75,.39c.52,0,.92-.01,1.18-.06,.49,0,.86-.01,1.13-.06l10.83-1.58,3.95-.96c.63-.14,1.12-.5,1.47-1.06,.37-.6,.47-1.22,.29-1.87l-.17-.45-.06-.06-16.25-32.57,4.28-26.64,.12-.39,2.49-11.57,18.06-61.75-.29,.34,.34-.62-.06,.27,10.1-13.53,.79-.85c.3-.42,.79-1.01,1.47-1.75l8.25-8.86,11.39-9.76-.29,6.38,.73,6.09,.34,1.47c.26,1.02,.68,2.33,1.24,3.95,.65,1.54,1.22,2.79,1.75,3.72l.46,.91,.27,.39,.23,.46,3.39,4.57,.16,.17v.06l.69,.62,33.12,106.1-5.01,4.17-.11,.23v2.26l.06,.29,.12,1.97,.68,3.39,.33,.85,.06,.22,.17,.29,.12,.29,.29,.5,.1,.29,.34,.5,.11,.11,.06,.11,.22,.23,.17,.22,.56,.57,.12,.06,.17,.1,.11,.12,.5,.34,1.14,.5,.34,.06,.1,.06,.17,.06,.62,.11h.29l.29,.06,1.8-.06,.17-.06,.06-.06,2.03-.96,.63-.39,1.97,13.76c.07,.3,.23,.55,.46,.73h.06c.52,.37,1.12,.72,1.8,1.02l1.25,.5,3.16,.85,.5,.06,.45,.12,3.95,.39h.52c.22,.04,.56,.06,1.01,.06l9.27-.5,9.08-1.35c.42-.07,.75-.29,1.02-.62,.22-.39,.3-.78,.22-1.19l-.06-.34h-.06l-.39-1.01-6.61-11.97-10.95-14.61,.12,.39-.39-.73,.27,.34-20.43-77.38-1.41-3.84c-.52-1.72-.88-3.03-1.06-3.89-.39-1.54-.65-2.87-.79-4.01l-.11-.5v-.23l-.17-1.01v-.23l-.06-.29-.17-2.76-.06-.23v-2.76c.04-1.28,.16-2.61,.34-4.01l.91-4.41,.45-1.41,.11-.5,1.47-3.74,2.6-4.9,3.55-4.97,3.74-4.18,9.87-8.29,31.94-31.61,13.15-14.96,11.35-14.27,12.24-17.67,16.48,9.94h.06l.17,.1,8.98,3.39,17.37,4.97,18.23,2.99,19.93,.73,6.88-.29,.33-.06h.4l2.31-.22h.4l9.37-1.42c2.37-.33,4.76-.7,7.15-1.12l3.39-.5,.06,.06v.04l.29,.85,.06,.12v.06l.56,1.87,.06,.33,.12,.34,.06,.33,.27,1.02,1.7,12.7,1.47,17.61,3.39,19.18,6.03,20.93,1.41,3.74-.06,1.68-.04,.29,.22,9.77,1.58,12.18,.68,3.05,.11,.23,1.02,3.84,.23,.5,.33,1.08,.06,.29,.62,1.68,.4,2.83v.33l1.18,16.03,.06,.39-.17,46.06-1.01,24.88c-1.14,.91-2.31,1.94-3.56,3.1l-1.41,1.41v.06l-.68,.73-.96,1.41-.62,1.25v.11l-.06,.04v.11h-.06v.12l-.12,.29v.17l-.06,.11v.22l-.06,.29-.04,1.29c.03,.65,.19,1.31,.45,1.98l.06,.22,.11,.23,.06,.23,.33,.62,.06,.17,.12,.17,.17,.33,.06,.06,.85,1.14c.6,.6,1.06,1.01,1.41,1.24l.17,.17,.16,.11,1.02,.56,.06,.06h.06l.06,.06,.23,.06,.04,.06,.11,.06,1.36,.5,.62,2.72,.06,.39v.06h.06v.17l.06,.06,.33,1.18,.52,1.02-.12-.17,.12,.29,.16,.27,.06,.17,.12,.11,.34,.62,.45,.57,.29,.22v.06l.11,.11c.52,.37,.92,.62,1.18,.73l1.24,.45,.57,.11h.17l.1,.06h.17l5.09,.85h.22l.12,.06h.17l.85,.11h.23l.22,.06,.46,.06h.45c.83,.07,2.04,.14,3.62,.23l9.7-.63,1.52-.27,.63-.23h.04l.06-.06,.23-.11h.06l.11-.06,.11-.12h.06l.11-.1,.1-.06,.12-.17,.11-.11,.73-.34,.23-.04,.11-.06h.11l.16-.06,.06-.06h.06l.29-.11,1.24-.62,1.47-1.14,.06-.11,.11-.11c.49-.45,.96-1.05,1.41-1.8l.46-1.02s.06-.04,.06-.11v-.06l.06-.06v-.12l.06-.1v-.12l.1-.34v-.17l.06-.11c.11-.7,.14-1.47,.06-2.26l-.45-2.03-.91-2.26-.29-.52-.06-.04v-.06l-.1-.17-.11-.23-1.08-1.75-3.28-4.28-2.53-2.6c-.83-.75-1.55-1.34-2.16-1.75l.06-19.91-1.58-60.33,.17-.29,.5-1.12,.06-.17,.06-.06v-.11l.46-1.14,.12-.39,.16-.34,1.58-6.65,.4-3.56,.11-7.56-.46-5.53-2.37-13.03-4.4-46-.23-26.12,.06-.29v-.33l.12-1.25,1.58-6.82-.17,.11,.23-.4-.06,.29,.17-.23,.11-.23,.56-.5,.17-.23,.5-.5,2.37-1.93,.11-.04,.11-.11,.22-.11,.63-.46,4.9-2.43,2.77-.89,.11-.06h.16l1.02-.29h1.19v.4l18.28,90.91,1.02,3.66c.12,.63,.29,1.26,.5,1.87,.79,2.77,1.52,5.2,2.21,7.27l.79,2.26,.1,.46,4.41,11.22c-.23,.09-.34,.27-.34,.57h.06l.06,.11h-.06l.06,.1,8.46,89.74-.62,.85-1.02,1.02-.62,.5-.11,.11-.17,.12h-.04l-.11,.1-.12,.06-.17,.17-1.08,.91-.16,.23h-.06l-.17,.17-.96,1.29-.17,.33-.06,.06-.04,.12v.11l-.06,.06v.06l-.06,.11-.34,1.35,.06,.91,.17,.85-.06-.12,.23,.62,.5,.91,.91,.96,.45,.33,.29,.12,.23,.17,.45,.23,.23,.06,.22,.11,.23,.04,.23,.12,.68,.17,.45,.06,.23,.06v.12l.17,1.18v.17l.06,.23,.06,.96,.23,1.12c.07,.46,.2,.85,.39,1.19l.11,.33,.17,.34h.04v.06l.06,.12,.11,.1v.06l.11,.11,.12,.17h.06l.06,.12,1.12,.91,1.08,.56,1.58,.5,.29,.06h.06l.06,.06h.1l5.32,1.08,.11,.06h.22l.23,.06,1.41,.11c.83,.07,1.49,.1,1.98,.1,.4,0,.73-.01,.95-.06h.79l.23-.04h.4l1.52-.23c.68-.11,1.35-.29,2.03-.52l1.02-.39,.22-.11h.06l.06-.06,.57-.29h.06l.16-.04,.23-.17,.5-.29,.23-.17h1.14l2.43-.22,.1-.06h.11l.17-.06h.11l.23-.06h.04l.11-.06h.12l.57-.17,1.29-.68,.62-.56c.26-.27,.45-.53,.56-.79l.11-.23c.16-.45,.23-.78,.23-.96l.06-.85-.06-1.06-.06-.11v-.23h-.06v-.06l-1.52-6.03h-.06v-.17l-1.12-2.87v-.06l-1.48-2.54-.16-.17-.23-.39h-.06l-.11-.17-1.47-1.24-.29-.17-.16-.17h-.06l-.06-.06-.06-.11-1.25-1.01-.16-.11v-.06l-.11-.06-.29-.29-.17-.11-.11-.16-.16-.12-.12-.17-.17-.17-.11-.17-.17-.16-.33-.52-.17-.16-.06-.12-.85-14.63-6.88-65.23v-.06c-.04-.19-.11-.29-.23-.29l.06-1.29c.34-4.53,.52-8.91,.52-13.16l.27-7-1.18-14.9v-.16l-.06-.17v.11l-.17-.4,.17,.29-1.41-35.16,3.66-51.92-.06,.11,.06-.34v.23l4.4-9.83,2.6-4.11,.45-.52,.17-.27,.11-.11,.12-.17,2.08-2.08,.52-.34c.19-.14,.55-.36,1.06-.62v-.06l.4-.23,5.07-6.21,7.4-11.8,8.52-17.95,.06-.23,.11-.23,.5-1.41,.11-.51,.17-.45,3.55-14.79v-.28l.11-.45,.12-.96,.06-.28v-.11l.06-.11,.17-1.47v.11c.89-3.8,1.95-7.83,3.15-12.08l6.84-21.33,.06-.06v-.11l.06-.11,.62-2.26c1.28-4.33,2.39-8.37,3.33-12.13,.75-2.97,1.68-7.06,2.82-12.25,.86-4.1,1.65-8.22,2.37-12.36,.65-3.91,1.26-8.05,1.87-12.42l2.37-25.06c.3-4.18,.46-8.37,.5-12.59,.11-3.72,.13-7.9,.06-12.53l-.62-17.66-.06-.06v-.34l-.85-7.05c-.53-3.84-1.25-7.98-2.16-12.42-.93-4.55-1.91-8.62-2.93-12.19-1.28-4.36-2.59-8.35-3.95-11.96l.06,.06-.17-.51-.1-.79v-.28l-.06-.23v-.28l-.06-.28,.06-2.94,.16-1.07v-.23l.34-1.58v-.23l.06-.06,.12-.51,2.2-5.47c.72,.41,1.42,.39,2.14-.06l18.35-12.92,3.38-2.99c1.25-1.13,2.33-2.16,3.22-3.1l3.1-3.33c1.18-1.28,2.13-2.44,2.89-3.5,.91-1.09,1.78-2.31,2.64-3.67,.79-1.17,1.58-2.45,2.37-3.84l2.04-4.06c.68-1.58,1.22-2.99,1.64-4.23,.52-1.47,.92-2.93,1.18-4.4l.73-4.46c.12-1.62,.16-3.07,.12-4.35l-.06,.11,.06-.23v.11l1.87-2.99v-.11l.11-1.52v-.11l.06-.17,.1-1.64c0-.45-.07-.92-.22-1.41l-.4-.73c-.26-.34-.49-.56-.68-.68l-.45-.23-1.08-.22h-.56c-.46,0-1.21,.11-2.26,.34l-2.37,.84-.63,.28-.33,.11h-.06v.06h-.11l-.11,.11-20.93,11.17-6.94,4.4-11.01,7.96c-.16,.08-.34,.23-.57,.45l-.16,.11h-.06l-11.01,9.88-2.83-.11,1.08-1.24,14.67-14.22,3.51-2.88c3.19-2.48,5.83-4.4,7.9-5.76l5.42-3.44,11.97-6.21,.5-.17,1.08-.51h.1l13.22-5.81,5.8-3.22c3.05-1.77,5.83-3.61,8.36-5.53,2.51-1.92,4.77-3.93,6.77-6.04l2.6-3.1,3.43-5.87,1.52-4.68,.29-1.86c.11-.04,.23-.08,.33-.11,.5-.19,.7-.53,.63-1.02l-.12-1.13,1.29-2.2,3.28-7.39,2.43-7.67,2.54-11.85c.07-.11,.07-.24,0-.4Zm-243.58,9.76l-.1,.23-1.14,4.57-.06-.06-.29-.9v-.17l-.06-.39v-1.24l.06-.23v-.17l.06-.45,.11-.4,.06-.45,.23-.73,1.41-1.02,.23-.23-.52,1.64Zm8.25-21.11l.39-1.75,3.85-11.12,.04,.11,.06,.06,.06,.11,2.49,3.39,.23,.23,1.75,2.09,.22,.23,.17,.23,1.19,1.24,.39,.34,.62,.68,.79,.68,.12,.11,.11,.06,.11,.11-5.03,.9-6.82,1.98-.73,.34Zm1.02,14.45c1.12-.6,2.23-1.19,3.32-1.75l-3.32,1.81v-.06Zm15.63,31.6c-.57,.26-1.19,.55-1.87,.85l-.62,.23-.29,.06-.33,.11-.91,.17-.17,.06h-.17l-.27,.06h-.91l-1.19-.17-1.06-.4-1.02-.62-.91-.85-.79-1.02c-.53-.79-.93-1.56-1.24-2.31-.3-.6-.63-1.45-.96-2.54l-.73-2.65-1.35-8.35-.79-13.77,7.15-3.72,10.44-4.18-2.03,39.05Zm114.84,32.84l-3.05,7.05-.11,.34-2.93,5.19-7.28,9.54-.27,.23-.23,.28-4.8,4.8-.17-.06-2.08-.06-.46,.06h-.79l-.45,.06h-.4l-3.72,.62-1.8,.51-.17,.11c-.49,.19-.76,.3-.79,.34l-.73,.34-1.41,.9-1.19-.45-.23-.06-.95-.34-.52-.11-1.01-.34-6.11-1.24-5.24-.17-.29,.06h-.22l-.52,.06-3.05-11.74-1.85-10.16c-.3-1.92-.63-4.69-.96-8.3l-.56-8.8c-.09-2.03-.11-5.1-.11-9.2,.03-2.03,.16-5.08,.39-9.14l2.04-19.08,2.31-11.57c.4-1.58,.88-3.12,1.41-4.63l1.47-3.33,.17-.28h.06c.14,.07,.22,.04,.22-.11l6.61,2.71,10.27,3.33,32,7.62-.85,24.44,1.13,19.98-2.77,10.61Zm78.16-36l-.45,1.07-.62,.9-1.35,1.52-3.89,3.05-8.25,4.57-19.14,8.18-11.05,5.87c-1.39,.79-2.76,1.64-4.07,2.54l-.63,.4h-.04l-.85,.17h-.46l-.23,.06h-1.01c-1.25-.07-2.3-.36-3.16-.85l-1.25-.96c-.4-.42-.75-.83-1.01-1.24l-.68-1.02-.52-1.13-.11-.17-1.29-4.23-.06-.45-.06-.06v-.06l-.06-.22-2.31-17.27-.85-19.3,1.31,.28,.27,.11,2.37,.56h.06l37.2,6.09c.79,.19,1.98,.47,3.61,.85l10.27,3.1,6.94,3.44c-.04,.08-.01,.15,.06,.23l.73,.85,.5,1.02c.11,.34,.17,.68,.17,1.02l-.12,1.07Zm23.71-30.98l-.06-.11,.06-.34v.45Z"/><circle class="cls-2" cx="448.51" cy="194.64" r="193.43" transform="translate(-6.27 374.15) rotate(-45)"/></g></svg>